<?xml version="1.0" encoding="utf-8"?>
<!-- Generator: Adobe Illustrator 16.0.0, SVG Export Plug-In . SVG Version: 6.00 Build 0)  -->
<!DOCTYPE svg PUBLIC "-//W3C//DTD SVG 1.1 Basic//EN" "http://www.w3.org/Graphics/SVG/1.1/DTD/svg11-basic.dtd">
<svg version="1.1" baseProfile="basic" id="Layer_1"
	 xmlns="http://www.w3.org/2000/svg" xmlns:xlink="http://www.w3.org/1999/xlink" x="0px" y="0px" width="288px" height="288px"
	 viewBox="0 0 288 288" xml:space="preserve">
<g>
	<path fill="#60B47F" d="M187.287,79.514c-1.698,0-3.419-0.432-4.994-1.34c-4.787-2.764-6.432-8.908-3.669-13.693
		c2.764-4.785,8.902-6.434,13.693-3.669c4.785,2.764,6.432,8.906,3.668,13.693C194.132,77.717,190.754,79.514,187.287,79.514z
		 M187.314,64.611c-1.688,0-3.334,0.875-4.238,2.44c-1.346,2.331-0.544,5.322,1.788,6.67c2.333,1.344,5.322,0.544,6.67-1.788
		c1.344-2.331,0.543-5.324-1.788-6.67C188.979,64.822,188.142,64.611,187.314,64.611z"/>
	<path fill="#60B47F" d="M41.643,86.802c-1.698,0-3.419-0.432-4.994-1.341c-4.787-2.763-6.432-8.907-3.669-13.692
		c2.764-4.785,8.902-6.434,13.693-3.669c4.785,2.764,6.432,8.906,3.668,13.692C48.487,85.004,45.109,86.802,41.643,86.802z
		 M41.67,71.899c-1.688,0-3.334,0.875-4.238,2.439c-1.346,2.332-0.544,5.323,1.788,6.67c2.333,1.345,5.322,0.544,6.67-1.787
		c1.344-2.332,0.544-5.324-1.788-6.67C43.335,72.11,42.497,71.899,41.67,71.899z"/>
	<path fill="#60B47F" d="M229.051,137.265c-1.699,0.001-3.42-0.433-4.995-1.341c-2.318-1.338-3.977-3.5-4.67-6.086
		c-0.692-2.586-0.338-5.287,1.001-7.605c2.764-4.787,8.903-6.432,13.693-3.669c2.317,1.338,3.979,3.5,4.671,6.086
		c0.693,2.586,0.337,5.289-1.002,7.607C235.895,135.469,232.517,137.265,229.051,137.265z M229.075,122.363
		c-1.688,0-3.332,0.875-4.236,2.44c-0.65,1.128-0.825,2.443-0.486,3.704c0.338,1.26,1.145,2.311,2.274,2.964l0,0
		c2.331,1.344,5.324,0.546,6.67-1.786c0.652-1.13,0.825-2.445,0.486-3.705c-0.336-1.259-1.145-2.312-2.274-2.965
		C230.742,122.574,229.904,122.363,229.075,122.363z"/>
	<path fill="#307A7A" d="M177.294,69.115l-16.765,2.145h-25.248l-25.591-3.272L54.139,36.542c-0.218,1.732-0.872,3.399-1.937,4.812
		l55.395,31.356c0.291,0.164,0.61,0.271,0.94,0.313l26.254,3.357c0.108,0.014,0.218,0.021,0.326,0.021h25.576
		c0.109,0,0.218-0.007,0.327-0.021l17.424-2.229C177.634,72.605,177.231,70.868,177.294,69.115z"/>
	<path fill="#60B47F" d="M52.888,30.297c-2.764-4.785-8.91-6.435-13.693-3.669c-4.785,2.763-6.432,8.905-3.669,13.692
		c1.854,3.212,5.23,5.01,8.698,5.01c1.699,0,3.42-0.432,4.995-1.341C54.005,41.226,55.65,35.082,52.888,30.297z"/>
	<g>
		<path fill="#307A7A" d="M44.994,67.341l1.152-22.219c-0.639,0.125-1.281,0.208-1.923,0.208c-1.096,0-2.176-0.199-3.208-0.546
			l-1.149,22.145C41.598,66.616,43.365,66.767,44.994,67.341z"/>
	</g>
	<path fill="#60B47F" d="M216.843,86.007c-4.787-2.764-10.93-1.116-13.693,3.669c-2.764,4.786-1.116,10.929,3.669,13.692
		c1.575,0.909,3.296,1.341,4.994,1.341c3.468,0,6.844-1.798,8.698-5.01C223.274,94.914,221.629,88.77,216.843,86.007z"/>
	<path fill="#307A7A" d="M224.918,118.134l-8.448-14.582c-1.047,0.545-2.176,0.915-3.342,1.069l8.952,15.449
		C222.918,119.254,223.88,118.605,224.918,118.134z"/>
	<path fill="#307A7A" d="M254.222,33.713c-0.047-0.889-0.549-1.69-1.331-2.121c-0.781-0.427-1.729-0.424-2.504,0.017l-55.458,31.394
		c1.142,1.344,1.898,2.952,2.218,4.652l50.388-28.522l-32.352,46.117c0.565,0.2,1.122,0.447,1.66,0.758
		c0.48,0.277,0.921,0.598,1.337,0.938l31.337-44.673l1.674,32.264l-20.303,42.862c1.094,0.201,2.174,0.578,3.192,1.165
		c0.522,0.302,1.001,0.658,1.453,1.039l20.581-43.451c0.183-0.385,0.267-0.81,0.244-1.235L254.222,33.713z"/>
	<path fill="#307A7A" d="M243.479,178.865l-1.859-8.153c-0.033-0.144-0.084-0.278-0.139-0.411c0.023-0.263,0.019-0.531-0.044-0.802
		l-7.692-33.409c-1.447,0.761-3.058,1.175-4.694,1.175c-0.106,0-0.212-0.018-0.317-0.021l7.693,33.409
		c0.032,0.142,0.083,0.273,0.137,0.403c-0.023,0.262-0.02,0.529,0.042,0.801l1.466,6.424L190.1,210.263
		c-0.374,0.249-0.675,0.591-0.876,0.992l-23.096,46.317H148.71c-0.283,0-0.55,0.057-0.805,0.141
		c-0.254-0.084-0.521-0.141-0.804-0.141h-17.419l-23.096-46.317c-0.201-0.401-0.502-0.743-0.875-0.992l-47.971-31.981l1.466-6.424
		c0.067-0.295,0.07-0.587,0.037-0.87c0.044-0.113,0.112-0.212,0.141-0.334l9.865-42.832c0.006-0.026-0.001-0.053,0.004-0.079
		l18.065-31.18c0.335-0.577,0.303-1.297-0.08-1.843L50.836,42.826c-0.49,0.433-1.029,0.824-1.617,1.163
		c-0.428,0.246-0.866,0.451-1.312,0.628l35.897,51.176l-16.019,27.646L48.925,83.621c-0.663,0.703-1.396,1.344-2.256,1.84
		c-0.687,0.396-1.404,0.687-2.134,0.905l19.503,41.171l-9.664,41.962c-0.063,0.272-0.068,0.542-0.044,0.806
		c-0.054,0.132-0.104,0.265-0.138,0.407l-1.859,8.153c-0.235,1.041,0.194,2.118,1.081,2.711l48.876,32.584l23.501,47.129
		c0.436,0.874,1.327,1.425,2.302,1.425h19.009c0.282,0,0.55-0.058,0.804-0.142c0.255,0.084,0.521,0.142,0.805,0.142h19.008
		c0.975,0,1.867-0.551,2.302-1.425l23.501-47.129l48.878-32.584C243.285,180.983,243.716,179.906,243.479,178.865z"/>
	<path fill="#60B47F" d="M100.179,177.579c0.408,0.776,1.185,1.292,2.061,1.368l22.724,1.917l-2.818,27.039l-20.289-17.85
		c-0.201-0.178-0.442-0.305-0.701-0.372l-43.072-11.174l8.693,5.796l33.124,8.594l30.404,26.749v14.018
		c0,0.794,0.367,1.542,0.992,2.029l14.65,11.395c0.469,0.364,1.024,0.542,1.577,0.542c0.128,0,0.255-0.023,0.382-0.043
		c0.128,0.02,0.254,0.043,0.383,0.043c0.553,0,1.107-0.178,1.576-0.542l14.65-11.395c0.626-0.487,0.992-1.235,0.992-2.029v-14.018
		l30.405-26.749l33.125-8.594l8.694-5.796l-43.074,11.174c-0.26,0.067-0.501,0.194-0.701,0.372l-20.288,17.848l-2.813-27.037
		l22.718-1.917c0.875-0.076,1.652-0.59,2.061-1.368l9.615-18.313c0.436-0.83,0.386-1.831-0.132-2.613
		c-0.518-0.781-1.395-1.215-2.354-1.145l-22.435,1.833c-0.607,0.05-1.179,0.313-1.608,0.745l-11.293,11.292
		c-0.207,0.208-0.362,0.453-0.486,0.712c-0.353,0.353-0.566,0.837-0.511,1.372l4.083,39.216l-7.282,6.406
		c-0.098-0.012-0.193-0.029-0.294-0.029h-14.447c-0.202,0-0.396,0.028-0.584,0.072c-0.188-0.044-0.382-0.072-0.583-0.072h-14.447
		c-0.102,0-0.196,0.018-0.295,0.029l-7.28-6.405l4.097-39.306c0.062-0.582-0.198-1.104-0.611-1.457
		c-0.112-0.193-0.24-0.377-0.401-0.538l-11.292-11.292c-0.431-0.433-1.001-0.695-1.608-0.745l-22.434-1.833
		c-0.959-0.068-1.836,0.363-2.354,1.145c-0.517,0.782-0.567,1.783-0.132,2.613L100.179,177.579z M181.688,162.389l16.836-1.376
		l-6.787,12.928l-19.537,1.649l-0.292-3.422L181.688,162.389z M135.445,222.196h11.877c0.201,0,0.396-0.029,0.583-0.073
		c0.188,0.044,0.382,0.073,0.584,0.073h11.876v10.211l-12.46,9.692l-12.46-9.692V222.196z M114.124,162.389l9.779,9.779
		l-0.291,3.422l-19.537-1.649l-6.786-12.928L114.124,162.389z"/>
</g>
</svg>
